<svg width="56" height="43" viewBox="0 0 56 43" fill="none" xmlns="http://www.w3.org/2000/svg">
<path d="M42.3784 0.300537H6.65946C4.89326 0.300537 3.1994 1.00216 1.95051 2.25105C0.70162 3.49994 0 5.1938 0 6.96V36.0195C0 37.7857 0.70162 39.4795 1.95051 40.7284C3.1994 41.9773 4.89326 42.6789 6.65946 42.6789H42.3784C44.1446 42.6789 45.8384 41.9773 47.0873 40.7284C48.3362 39.4795 49.0378 37.7857 49.0378 36.0195V32.6292H50.9146C52.2633 32.6292 53.5568 32.0934 54.5105 31.1397C55.4642 30.186 56 28.8925 56 27.5438C56 26.195 55.4642 24.9016 54.5105 23.9479C53.5568 22.9942 52.2633 22.4584 50.9146 22.4584H49.0378V6.96C49.0378 5.1938 48.3362 3.49994 47.0873 2.25105C45.8384 1.00216 44.1446 0.300537 42.3784 0.300537ZM6.65946 1.51135H42.3784C43.8234 1.51135 45.2093 2.0854 46.2312 3.10722C47.253 4.12904 47.827 5.51493 47.827 6.96V13.6195H1.21081V6.96C1.21081 5.51493 1.78486 4.12904 2.80668 3.10722C3.8285 2.0854 5.21439 1.51135 6.65946 1.51135ZM47.827 36.0195C47.827 37.4645 47.253 38.8504 46.2312 39.8722C45.2093 40.8941 43.8234 41.4681 42.3784 41.4681H6.65946C5.21439 41.4681 3.8285 40.8941 2.80668 39.8722C1.78486 38.8504 1.21081 37.4645 1.21081 36.0195V14.8303H47.827V22.4584H31.5416L31.2389 22.5795L24.2768 27.0595C24.1878 27.1053 24.1132 27.1747 24.0611 27.2602C24.0091 27.3456 23.9815 27.4437 23.9815 27.5438C23.9815 27.6438 24.0091 27.742 24.0611 27.8274C24.1132 27.9128 24.1878 27.9823 24.2768 28.0281L31.2389 32.5081L31.5416 32.6292H47.827V36.0195ZM25.7297 27.5438L30.9362 24.1535V30.9341L25.7297 27.5438ZM54.7892 27.5438C54.7892 28.0526 54.689 28.5564 54.4943 29.0265C54.2995 29.4966 54.0141 29.9237 53.6543 30.2835C53.2946 30.6433 52.8674 30.9287 52.3973 31.1234C51.9272 31.3182 51.4234 31.4184 50.9146 31.4184H32.147V23.6692H50.9146C51.4234 23.6692 51.9272 23.7694 52.3973 23.9641C52.8674 24.1588 53.2946 24.4442 53.6543 24.804C54.0141 25.1638 54.2995 25.591 54.4943 26.061C54.689 26.5311 54.7892 27.035 54.7892 27.5438Z" fill="#68491A"/>
<path d="M6.96215 9.98704C8.29957 9.98704 9.38377 8.90285 9.38377 7.56542C9.38377 6.228 8.29957 5.1438 6.96215 5.1438C5.62472 5.1438 4.54053 6.228 4.54053 7.56542C4.54053 8.90285 5.62472 9.98704 6.96215 9.98704Z" fill="#68491A"/>
<path d="M13.3191 9.98704C14.6565 9.98704 15.7407 8.90285 15.7407 7.56542C15.7407 6.228 14.6565 5.1438 13.3191 5.1438C11.9817 5.1438 10.8975 6.228 10.8975 7.56542C10.8975 8.90285 11.9817 9.98704 13.3191 9.98704Z" fill="#68491A"/>
<path d="M19.5547 9.98704C20.8921 9.98704 21.9763 8.90285 21.9763 7.56542C21.9763 6.228 20.8921 5.1438 19.5547 5.1438C18.2173 5.1438 17.1331 6.228 17.1331 7.56542C17.1331 8.90285 18.2173 9.98704 19.5547 9.98704Z" fill="#68491A"/>
</svg>
