<svg width="56" height="51" viewBox="0 0 56 51" fill="none" xmlns="http://www.w3.org/2000/svg">
<path d="M39.2271 15.6646V11.3263C39.2271 10.0396 38.1804 8.99292 36.8938 8.99292H15.2573C13.9706 8.99292 12.9239 10.0396 12.9239 11.3263V15.6646C9.25057 15.8739 6.32422 18.9195 6.32422 22.6443V47.3456C6.32422 49.0614 7.71951 50.4567 9.43533 50.4567H42.715C44.4308 50.4567 45.8261 49.0614 45.8261 47.3456V22.6443C45.8261 18.9197 42.9001 15.8742 39.2271 15.6646ZM14.4795 11.3263C14.4795 10.8971 14.8281 10.5485 15.2573 10.5485H36.8938C37.3229 10.5485 37.6715 10.8971 37.6715 11.3263V15.6443H33.4181V13.9285C33.4181 13.4986 33.0702 13.1507 32.6403 13.1507C32.2104 13.1507 31.8625 13.4986 31.8625 13.9285V15.6443H26.8533V13.9285C26.8533 13.4986 26.5054 13.1507 26.0755 13.1507C25.6456 13.1507 25.2977 13.4986 25.2977 13.9285V15.6443H20.2885V13.9285C20.2885 13.4986 19.9406 13.1507 19.5107 13.1507C19.0808 13.1507 18.733 13.4986 18.733 13.9285V15.6443H14.4795V11.3263ZM44.2705 47.3456C44.2705 48.2031 43.5725 48.9011 42.715 48.9011H9.43533C8.5778 48.9011 7.87977 48.2031 7.87977 47.3456V22.6443C7.87977 19.6426 10.3225 17.1998 13.3242 17.1998H13.7017H38.4493H38.8261C41.8278 17.1998 44.2705 19.6426 44.2705 22.6443V47.3456Z" fill="#68491A"/>
<path d="M26.853 32.2072V29.1798C27.4744 29.4278 27.908 29.9582 27.908 30.5763C27.908 31.0062 28.2559 31.354 28.6858 31.354C29.1157 31.354 29.4636 31.0062 29.4636 30.5763C29.4636 29.1111 28.3462 27.8871 26.853 27.5631V26.7102C26.853 26.2802 26.5052 25.9324 26.0752 25.9324C25.6453 25.9324 25.2975 26.2802 25.2975 26.7102V27.5631C23.8043 27.8871 22.6869 29.1111 22.6869 30.5763C22.6869 32.0407 23.8043 33.2647 25.2975 33.5886V36.9392C24.5797 36.6813 24.0746 36.0777 24.0746 35.3758C24.0746 34.9459 23.7267 34.5981 23.2968 34.5981C22.8669 34.5981 22.519 34.9459 22.519 35.3758C22.519 36.9242 23.7103 38.2184 25.2975 38.5445V39.3916C25.2975 39.8215 25.6453 40.1693 26.0752 40.1693C26.5052 40.1693 26.853 39.8215 26.853 39.3916V38.5445C28.4402 38.2184 29.6315 36.9242 29.6315 35.3758C29.6315 33.8275 28.4402 32.5332 26.853 32.2072ZM24.2425 30.5763C24.2425 29.9582 24.6761 29.4278 25.2975 29.1798V31.9719C24.6761 31.7239 24.2425 31.1938 24.2425 30.5763ZM26.853 36.9392V33.8125C27.5708 34.0704 28.0759 34.674 28.0759 35.3758C28.0759 36.0777 27.5708 36.6813 26.853 36.9392Z" fill="#68491A"/>
<path d="M26.0752 22.2957C20.1879 22.2957 15.3982 27.1203 15.3982 33.0509C15.3982 38.9807 20.1879 43.8053 26.0752 43.8053C31.9624 43.8053 36.7521 38.9807 36.7521 33.0509C36.7521 27.1203 31.9624 22.2957 26.0752 22.2957ZM26.0752 42.2498C21.0454 42.2498 16.9537 38.1231 16.9537 33.0509C16.9537 27.9778 21.0454 23.8512 26.0752 23.8512C31.1049 23.8512 35.1966 27.9778 35.1966 33.0509C35.1966 38.1231 31.1049 42.2498 26.0752 42.2498Z" fill="#68491A"/>
<path d="M55.289 11.9847C53.7638 11.2776 52.0852 9.58454 51.3834 8.04721C51.1813 7.60516 50.7552 7.3302 50.2722 7.3302C49.7898 7.3302 49.3637 7.60516 49.1609 8.04797C48.4599 9.58454 46.7813 11.2776 45.2561 11.9847C44.8178 12.1883 44.5452 12.6144 44.5452 13.0967C44.5452 13.579 44.8178 14.0051 45.2561 14.2087C46.7813 14.9158 48.4599 16.6088 49.1609 18.1454L49.1617 18.1462C49.3637 18.5882 49.7898 18.8632 50.2722 18.8632C50.7552 18.8632 51.1813 18.5882 51.3841 18.1454C52.0852 16.6088 53.7638 14.9158 55.289 14.2087C55.7272 14.0051 55.9999 13.579 55.9999 13.0967C55.9999 12.6144 55.7272 12.1883 55.289 11.9847ZM50.2722 16.9066C49.4215 15.405 47.9776 13.9519 46.4866 13.0967C47.9776 12.2407 49.4215 10.7877 50.2729 9.2868C51.1236 10.7884 52.5675 12.2414 54.0585 13.0967C52.5675 13.9527 51.1236 15.4057 50.2722 16.9066Z" fill="#68491A"/>
<path d="M8.33377 6.20911C8.73177 6.02454 8.97938 5.63717 8.97938 5.19891C8.97938 4.75989 8.73177 4.37252 8.33377 4.18795C7.2271 3.67449 6.00955 2.4463 5.49989 1.33129C5.31684 0.928725 4.92947 0.678833 4.49045 0.678833C4.05067 0.678833 3.6633 0.928725 3.48025 1.33053C2.96983 2.44706 1.75152 3.67525 0.645616 4.18795C0.247613 4.37252 0 4.75989 0 5.19891C0 5.63717 0.247613 6.02454 0.646376 6.20911C1.75152 6.72104 2.96983 7.94923 3.48025 9.06577C3.66406 9.46757 4.05067 9.71746 4.49045 9.71746C4.92947 9.71746 5.31608 9.46833 5.50065 9.06577C6.00955 7.94999 7.2271 6.7218 8.33377 6.20911ZM4.48969 7.67883C3.88053 6.71876 2.97667 5.80958 2.0242 5.19815C2.97667 4.58671 3.88053 3.67753 4.48969 2.71822C5.09885 3.67753 6.00195 4.58671 6.95519 5.19815C6.00195 5.80958 5.09809 6.71952 4.48969 7.67883Z" fill="#68491A"/>
</svg>
