<svg width="56" height="57" viewBox="0 0 56 57" fill="none" xmlns="http://www.w3.org/2000/svg">
<path d="M28.0001 6.27539C15.7501 6.27539 5.81885 16.2066 5.81885 28.4566C5.81885 40.7066 15.7501 50.6379 28.0001 50.6379C40.2501 50.6379 50.1813 40.7066 50.1813 28.4566C50.1813 16.2066 40.2501 6.27539 28.0001 6.27539ZM28.0001 48.5379C16.9313 48.5379 7.91885 39.5254 7.91885 28.4566C7.91885 17.3879 16.9313 8.37539 28.0001 8.37539C39.0688 8.37539 48.0813 17.3879 48.0813 28.4566C48.0813 39.5254 39.0688 48.5379 28.0001 48.5379Z" fill="#68491A"/>
<path d="M29.05 28.0191V15.7691C29.05 15.2004 28.5687 14.7191 28 14.7191C27.4312 14.7191 26.95 15.2004 26.95 15.7691V28.4566C26.95 28.7191 27.0812 29.0254 27.2562 29.2004L35.7 37.6441C35.9187 37.8629 36.1812 37.9504 36.4437 37.9504C36.7062 37.9504 36.9687 37.8629 37.1875 37.6441C37.5812 37.2504 37.5812 36.5504 37.1875 36.1566L29.05 28.0191Z" fill="#68491A"/>
</svg>
