<svg width="56" height="52" viewBox="0 0 56 52" fill="none" xmlns="http://www.w3.org/2000/svg">
<path fill-rule="evenodd" clip-rule="evenodd" d="M28.0004 39.5266L45.1099 22.4171C46.702 20.825 47.4981 18.7395 47.4981 16.654H47.5002C47.5002 14.5699 46.7034 12.4844 45.1099 10.8909C43.5177 9.2987 41.4322 8.50263 39.346 8.50263V8.50049C37.2619 8.50049 35.1764 9.29728 33.5829 10.8916L28.4309 16.0435C28.1931 16.2813 27.8076 16.2813 27.5698 16.0435L22.4178 10.8916C20.8257 9.29942 18.7402 8.50334 16.6547 8.50334V8.5012C14.5706 8.5012 12.4851 9.29799 10.8909 10.8923C9.2987 12.4844 8.50263 14.5699 8.50263 16.6554H8.50049C8.50049 18.7395 9.29728 20.825 10.8916 22.4186L28.0004 39.5266ZM4.87782 28.4302C1.6257 25.178 0 20.9157 0 16.654C0 12.3916 1.6257 8.12994 4.87782 4.87782C8.12994 1.6257 12.3916 0 16.654 0C20.7307 0 24.8075 1.48791 28.0004 4.46301C31.1932 1.48791 35.2693 0 39.346 0C43.6084 0 47.8701 1.6257 51.1222 4.87782C54.3743 8.12994 56 12.3923 56 16.654C56 20.9164 54.3743 25.1788 51.1222 28.4302L28.4309 51.1222C28.1931 51.3599 27.8076 51.3599 27.5698 51.1222L4.87782 28.4302ZM1.21731 16.654C1.21731 12.7036 2.7245 8.75252 5.73887 5.73815C8.75323 2.72378 12.7036 1.2166 16.6547 1.2166C20.6058 1.2166 24.5562 2.72378 27.5705 5.73815C27.8083 5.9759 28.1938 5.9759 28.4316 5.73815C31.446 2.72378 35.3963 1.2166 39.3474 1.2166C43.2985 1.2166 47.2489 2.72378 50.2633 5.73815C53.2776 8.75252 54.7848 12.7029 54.7848 16.654C54.7848 20.6051 53.2776 24.5555 50.2633 27.5698L28.0004 49.8313L5.73887 27.5698C2.7245 24.5555 1.21731 20.6044 1.21731 16.654ZM45.9702 23.2782L28.4309 40.8175C28.1931 41.0552 27.8076 41.0552 27.5698 40.8175L10.0298 23.2782C8.20134 21.4497 7.28746 19.0522 7.28746 16.654H7.28532C7.28532 14.2572 8.19991 11.8597 10.0305 10.0298C11.859 8.20134 14.2565 7.28746 16.6547 7.28746V7.28532C19.0515 7.28532 21.449 8.20062 23.2789 10.0305L28.0004 14.7513L32.7225 10.0291C34.551 8.20062 36.9478 7.28675 39.3467 7.28675V7.2846C41.7435 7.2846 44.141 8.19991 45.9709 10.0298C47.7994 11.8583 48.714 14.2558 48.714 16.654H48.7161C48.7154 19.0508 47.8008 21.4476 45.9702 23.2782Z" fill="#68491A"/>
</svg>
