<svg width="258" height="16" viewBox="0 0 258 16" fill="none" xmlns="http://www.w3.org/2000/svg">
<path d="M4.10985 2.06184C4.43504 1.03092 5.14077 0.532755 6.13017 0.532755C7.11958 0.532755 7.80455 1.024 8.12974 2.06184L12.2327 15.0348H11.4578L10.0809 10.6552L2.17255 10.6759L0.795677 15.0348H0L4.10293 2.06184H4.10985ZM2.39395 9.94942H9.84564L7.43785 2.28325C7.22336 1.59827 6.81515 1.25232 6.13017 1.25232C5.4452 1.25232 5.01623 1.59827 4.79482 2.28325L2.38703 9.94942H2.39395Z" fill="white"/>
<path d="M19.7952 15.0348V2.24866C19.7952 1.12779 20.4801 0.532764 21.3658 0.532764C22.0507 0.532764 22.5281 0.878711 22.8464 1.58444L28.603 13.8102C28.8175 14.3014 29.1426 14.5644 29.5232 14.5644C29.9522 14.5644 30.2566 14.2184 30.2566 13.5542V0.726496H31.0108V13.5127C31.0108 14.6335 30.305 15.2286 29.5301 15.2286C28.8866 15.2286 28.3262 14.9034 27.9803 14.1769L22.2237 1.90963C22.0092 1.43915 21.7532 1.17623 21.3658 1.17623C20.8745 1.17623 20.5286 1.54293 20.5286 2.2279V15.0348H19.7952Z" fill="white"/>
<path d="M38.6284 7.85991C38.6284 3.77774 41.8526 0.553516 45.8241 0.553516C49.7956 0.553516 53.0198 3.77774 53.0198 7.85991C53.0198 11.9421 49.7956 15.2286 45.8241 15.2286C41.8526 15.2286 38.6284 12.0043 38.6284 7.85991ZM52.2034 7.85991C52.2034 4.20671 49.3666 1.30768 45.8241 1.30768C42.2816 1.30768 39.4449 4.20671 39.4449 7.85991C39.4449 11.5131 42.2816 14.4536 45.8241 14.4536C49.3666 14.4536 52.2034 11.5546 52.2034 7.85991Z" fill="white"/>
<path d="M68.7257 1.45989H64.0623V15.0348H63.2874V1.48065H58.6033V0.726487H68.7257V1.45989Z" fill="white"/>
<path d="M75.79 15.0348V0.726487H76.5857V7.51396H85.7602V0.726487H86.5351V15.0348H85.7602V8.26812H76.5857V15.0348H75.79Z" fill="white"/>
<path d="M96.5398 15.0349C95.8341 15.0349 95.6196 14.6889 95.6196 14.1354V1.63288C95.6196 1.07245 95.8341 0.733419 96.5398 0.733419H104.815V1.46683H96.4153V7.52781H104.448V8.26122L96.4153 8.28197V14.2945H105.029V15.0487H96.5398V15.0349Z" fill="white"/>
<path d="M113.083 15.0348V0.726487H117.276C120.022 0.726487 122.216 1.97189 122.216 4.70487C122.216 6.87742 120.797 8.26812 118.5 8.61407C120.05 9.15374 120.818 10.7174 121.808 12.6962L122.991 15.0348H122.133L121.04 12.8623C119.898 10.6067 119.061 8.86315 116.508 8.86315H113.865V15.0279H113.09L113.083 15.0348ZM113.878 1.45989V8.14358H117.227C119.635 8.14358 121.42 7.05039 121.42 4.74638C121.42 2.44238 119.51 1.45989 117.276 1.45989H113.878Z" fill="white"/>
<path d="M146.342 0C148.515 0 150.079 0.733406 151.538 1.99957C151.732 2.17254 151.732 2.42854 151.559 2.60152L150.611 3.57017C150.459 3.7639 150.265 3.7639 150.072 3.57017C149.061 2.69146 147.685 2.13103 146.356 2.13103C143.284 2.13103 140.966 4.71179 140.966 7.71461C140.966 10.7174 143.305 13.2774 146.384 13.2774C147.954 13.2774 149.048 12.6547 150.079 11.859C150.272 11.7068 150.466 11.7276 150.597 11.8383L151.587 12.8069C151.76 12.9592 151.718 13.2359 151.566 13.3881C150.106 14.8065 148.259 15.4707 146.342 15.4707C142.046 15.4707 138.586 12.0528 138.586 7.75612C138.586 3.45946 142.046 0 146.342 0Z" fill="white"/>
<path d="M158.928 0.622714C158.928 0.408227 159.121 0.214497 159.336 0.214497H160.754C160.99 0.214497 161.163 0.408227 161.163 0.622714V6.61451H169.029V0.622714C169.029 0.408227 169.202 0.214497 169.438 0.214497H170.856C171.07 0.214497 171.264 0.408227 171.264 0.622714V14.848C171.264 15.0625 171.07 15.2563 170.856 15.2563H169.438C169.202 15.2563 169.029 15.0625 169.029 14.848V8.64175H161.163V14.848C161.163 15.0625 160.99 15.2563 160.754 15.2563H159.336C159.121 15.2563 158.928 15.0625 158.928 14.848V0.622714Z" fill="white"/>
<path d="M177.699 14.6958L184.293 0.235241C184.355 0.103781 184.549 0 184.659 0H184.874C184.985 0 185.171 0.1107 185.241 0.235241L191.793 14.6958C191.924 14.9726 191.751 15.2562 191.426 15.2562H190.07C189.814 15.2562 189.662 15.1248 189.579 14.9311L188.243 11.9905H181.221C180.792 12.9799 180.342 13.9486 179.913 14.9311C179.851 15.0833 179.678 15.2562 179.422 15.2562H178.066C177.74 15.2562 177.574 14.9795 177.699 14.6958ZM187.434 10.1432L184.791 4.25514H184.68L182.058 10.1432H187.427H187.434Z" fill="white"/>
<path d="M198.234 0.622714C198.234 0.408227 198.407 0.214497 198.643 0.214497H203.541C206.184 0.214497 208.357 2.36628 208.357 4.96088C208.357 7.55548 206.184 9.79722 203.569 9.79722H200.455V14.848C200.455 15.0625 200.262 15.2563 200.047 15.2563H198.65C198.414 15.2563 198.241 15.0625 198.241 14.848V0.622714H198.234ZM203.41 7.69386C204.89 7.69386 206.136 6.48997 206.136 4.94705C206.136 3.48715 204.89 2.36628 203.41 2.36628H200.442V7.69386H203.41Z" fill="white"/>
<path d="M217.351 2.23483H213.85C213.615 2.23483 213.442 2.0411 213.442 1.82661V0.622714C213.442 0.408227 213.615 0.214497 213.85 0.214497H223.087C223.322 0.214497 223.495 0.408227 223.495 0.622714V1.82661C223.495 2.0411 223.322 2.23483 223.087 2.23483H219.586V14.848C219.586 15.0625 219.392 15.2563 219.178 15.2563H217.759C217.545 15.2563 217.351 15.0625 217.351 14.848V2.23483Z" fill="white"/>
<path d="M230.11 0.622714C230.11 0.408227 230.283 0.214497 230.518 0.214497H239.111C239.347 0.214497 239.52 0.408227 239.52 0.622714V1.82661C239.52 2.0411 239.347 2.23483 239.111 2.23483H232.324V6.61451H238.06C238.274 6.61451 238.468 6.80824 238.468 7.02272V8.22662C238.468 8.46186 238.274 8.63484 238.06 8.63484H232.324V13.2567H239.111C239.347 13.2567 239.52 13.4504 239.52 13.6649V14.848C239.52 15.0625 239.347 15.2563 239.111 15.2563H230.518C230.283 15.2563 230.11 15.0625 230.11 14.848V0.622714Z" fill="white"/>
<path d="M247.061 0.622714C247.061 0.408227 247.234 0.214497 247.469 0.214497H253.316C255.897 0.214497 258 2.25558 258 4.81559C258 6.7944 256.692 8.42727 254.817 9.17451L257.758 14.6335C257.91 14.9103 257.758 15.2563 257.391 15.2563H255.717C255.544 15.2563 255.419 15.1455 255.371 15.0625L252.513 9.36824H249.268V14.848C249.268 15.0625 249.075 15.2563 248.86 15.2563H247.462C247.227 15.2563 247.054 15.0625 247.054 14.848V0.622714H247.061ZM253.143 7.52089C254.54 7.52089 255.765 6.33775 255.765 4.8571C255.765 3.45947 254.54 2.2971 253.143 2.2971H249.317V7.52089H253.143Z" fill="white"/>
</svg>
